<svg width="1000" height="426" viewBox="0 0 1000 426" fill="none" xmlns="http://www.w3.org/2000/svg">
<rect width="1000" height="426" fill="white"/>
<path d="M593.98 168.72V267H570.04V208.06L548.06 267H528.74L506.62 207.92V267H482.68V168.72H510.96L538.54 236.76L565.84 168.72H593.98ZM623.236 180.76C619.036 180.76 615.582 179.547 612.876 177.12C610.262 174.6 608.956 171.52 608.956 167.88C608.956 164.147 610.262 161.067 612.876 158.64C615.582 156.12 619.036 154.86 623.236 154.86C627.342 154.86 630.702 156.12 633.316 158.64C636.022 161.067 637.376 164.147 637.376 167.88C637.376 171.52 636.022 174.6 633.316 177.12C630.702 179.547 627.342 180.76 623.236 180.76ZM635.136 188.88V267H611.196V188.88H635.136ZM648.425 217.72C648.425 208.013 650.525 199.38 654.725 191.82C658.925 184.167 664.758 178.24 672.225 174.04C679.785 169.747 688.325 167.6 697.845 167.6C709.511 167.6 719.498 170.68 727.805 176.84C736.111 183 741.665 191.4 744.465 202.04H718.145C716.185 197.933 713.385 194.807 709.745 192.66C706.198 190.513 702.138 189.44 697.565 189.44C690.191 189.44 684.218 192.007 679.645 197.14C675.071 202.273 672.785 209.133 672.785 217.72C672.785 226.307 675.071 233.167 679.645 238.3C684.218 243.433 690.191 246 697.565 246C702.138 246 706.198 244.927 709.745 242.78C713.385 240.633 716.185 237.507 718.145 233.4H744.465C741.665 244.04 736.111 252.44 727.805 258.6C719.498 264.667 709.511 267.7 697.845 267.7C688.325 267.7 679.785 265.6 672.225 261.4C664.758 257.107 658.925 251.18 654.725 243.62C650.525 236.06 648.425 227.427 648.425 217.72ZM794.685 268.12C787.032 268.12 780.125 266.487 773.965 263.22C767.899 259.953 763.092 255.287 759.545 249.22C756.092 243.153 754.365 236.06 754.365 227.94C754.365 219.913 756.139 212.867 759.685 206.8C763.232 200.64 768.085 195.927 774.245 192.66C780.405 189.393 787.312 187.76 794.965 187.76C802.619 187.76 809.525 189.393 815.685 192.66C821.845 195.927 826.699 200.64 830.245 206.8C833.792 212.867 835.565 219.913 835.565 227.94C835.565 235.967 833.745 243.06 830.105 249.22C826.559 255.287 821.659 259.953 815.405 263.22C809.245 266.487 802.339 268.12 794.685 268.12ZM794.685 247.4C799.259 247.4 803.132 245.72 806.305 242.36C809.572 239 811.205 234.193 811.205 227.94C811.205 221.687 809.619 216.88 806.445 213.52C803.365 210.16 799.539 208.48 794.965 208.48C790.299 208.48 786.425 210.16 783.345 213.52C780.265 216.787 778.725 221.593 778.725 227.94C778.725 234.193 780.219 239 783.205 242.36C786.285 245.72 790.112 247.4 794.685 247.4ZM872.206 163.4V267H848.266V163.4H872.206ZM963.195 226.68C963.195 228.92 963.055 231.253 962.775 233.68H908.595C908.968 238.533 910.508 242.267 913.215 244.88C916.015 247.4 919.422 248.66 923.435 248.66C929.408 248.66 933.562 246.14 935.895 241.1H961.375C960.068 246.233 957.688 250.853 954.235 254.96C950.875 259.067 946.628 262.287 941.495 264.62C936.362 266.953 930.622 268.12 924.275 268.12C916.622 268.12 909.808 266.487 903.835 263.22C897.862 259.953 893.195 255.287 889.835 249.22C886.475 243.153 884.795 236.06 884.795 227.94C884.795 219.82 886.428 212.727 889.695 206.66C893.055 200.593 897.722 195.927 903.695 192.66C909.668 189.393 916.528 187.76 924.275 187.76C931.835 187.76 938.555 189.347 944.435 192.52C950.315 195.693 954.888 200.22 958.155 206.1C961.515 211.98 963.195 218.84 963.195 226.68ZM938.695 220.38C938.695 216.273 937.295 213.007 934.495 210.58C931.695 208.153 928.195 206.94 923.995 206.94C919.982 206.94 916.575 208.107 913.775 210.44C911.068 212.773 909.388 216.087 908.735 220.38H938.695Z" fill="#0061DF"/>
<circle cx="242.647" cy="208.294" r="29.4118" fill="#0061DF"/>
<circle cx="125" cy="213" r="104.5" fill="white" stroke="#0061DF" stroke-width="9"/>
<circle cx="125" cy="213" r="76.4706" fill="#0061DF"/>
<path d="M74.1175 251.824C59.1177 228.294 59.1177 194.176 74.1175 171.824M74.1175 251.824C59.1177 228.294 59.1177 194.176 74.1175 171.824" stroke="white" stroke-width="9"/>
<circle cx="357.941" cy="213" r="104.5" fill="white" stroke="#0061DF" stroke-width="9"/>
<circle cx="360.294" cy="213" r="76.4706" fill="#0061DF"/>
<path d="M303 139.173C252.807 112.365 226.52 112.187 183 139.173L200.647 162.702C233.283 148.689 251.571 148.907 284.176 162.702L303 139.173Z" fill="white"/>
<path d="M188 130.74C233.203 110.573 255.302 109.942 296.5 130.74" stroke="#0061DF" stroke-width="9"/>
<circle cx="241.471" cy="207.118" r="21.1765" fill="white"/>
<circle cx="241.471" cy="207.118" r="14.1176" fill="#0061DF"/>
<path d="M214 161C236.5 150.333 248 150.333 269 161" stroke="#0061DF" stroke-width="7.059"/>
<path d="M309.191 251.824C294.191 228.294 294.191 194.176 309.191 171.824" stroke="white" stroke-width="9"/>
</svg>
