<svg width="57" height="50" viewBox="0 0 57 50" fill="none" xmlns="http://www.w3.org/2000/svg">
<path d="M9.375 12.5C10.6111 12.5 11.8195 12.1334 12.8473 11.4467C13.8751 10.7599 14.6762 9.78381 15.1492 8.64177C15.6223 7.49974 15.7461 6.24307 15.5049 5.03069C15.2638 3.81831 14.6685 2.70466 13.7944 1.83059C12.9203 0.956507 11.8067 0.361252 10.5943 0.120095C9.38193 -0.121063 8.12527 0.00270801 6.98323 0.475756C5.84119 0.948803 4.86507 1.74988 4.17832 2.77769C3.49156 3.8055 3.125 5.01387 3.125 6.25C3.125 7.90761 3.78348 9.49732 4.95558 10.6694C6.12769 11.8415 7.7174 12.5 9.375 12.5ZM9.375 29.6953C9.37361 29.1113 9.49097 28.5332 9.71996 27.996C9.94894 27.4588 10.2848 26.9737 10.707 26.5703L17.751 19.9219C17.9121 19.7705 18.1191 19.6963 18.2988 19.5732C17.8392 18.4098 17.0407 17.4113 16.0066 16.7073C14.9726 16.0033 13.7509 15.6262 12.5 15.625H6.25C4.5924 15.625 3.00269 16.2835 1.83058 17.4556C0.65848 18.6277 0 20.2174 0 21.875L0 31.25C0 32.0788 0.32924 32.8737 0.915291 33.4597C1.50134 34.0458 2.2962 34.375 3.125 34.375V46.875C3.125 47.7038 3.45424 48.4987 4.04029 49.0847C4.62634 49.6708 5.4212 50 6.25 50H12.5C13.3288 50 14.1237 49.6708 14.7097 49.0847C15.2958 48.4987 15.625 47.7038 15.625 46.875V37.4619L10.707 32.8203C10.2846 32.417 9.94872 31.932 9.71972 31.3948C9.49072 30.8575 9.37344 30.2793 9.375 29.6953ZM46.875 12.5C48.1111 12.5 49.3195 12.1334 50.3473 11.4467C51.3751 10.7599 52.1762 9.78381 52.6492 8.64177C53.1223 7.49974 53.2461 6.24307 53.0049 5.03069C52.7638 3.81831 52.1685 2.70466 51.2944 1.83059C50.4203 0.956507 49.3067 0.361252 48.0943 0.120095C46.8819 -0.121063 45.6253 0.00270801 44.4832 0.475756C43.3412 0.948803 42.3651 1.74988 41.6783 2.77769C40.9916 3.8055 40.625 5.01387 40.625 6.25C40.625 7.90761 41.2835 9.49732 42.4556 10.6694C43.6277 11.8415 45.2174 12.5 46.875 12.5ZM50 15.625H43.75C42.4992 15.6261 41.2776 16.003 40.2436 16.7069C39.2096 17.4107 38.4109 18.409 37.9512 19.5723C38.1309 19.6963 38.3418 19.7676 38.5 19.9229L45.543 26.5693C45.9639 26.9737 46.2989 27.4589 46.5277 27.9959C46.7565 28.5329 46.8744 29.1106 46.8744 29.6943C46.8744 30.2781 46.7565 30.8557 46.5277 31.3927C46.2989 31.9298 45.9639 32.415 45.543 32.8193L40.625 37.4629V46.875C40.625 47.7038 40.9542 48.4987 41.5403 49.0847C42.1263 49.6708 42.9212 50 43.75 50H50C50.8288 50 51.6237 49.6708 52.2097 49.0847C52.7958 48.4987 53.125 47.7038 53.125 46.875V34.375C53.9538 34.375 54.7487 34.0458 55.3347 33.4597C55.9208 32.8737 56.25 32.0788 56.25 31.25V21.875C56.25 20.2174 55.5915 18.6277 54.4194 17.4556C53.2473 16.2835 51.6576 15.625 50 15.625ZM43.3984 28.8418L36.3555 22.1953C36.1892 22.0368 35.9801 21.9307 35.754 21.8901C35.528 21.8495 35.295 21.8762 35.084 21.967C34.873 22.0577 34.6933 22.2084 34.5672 22.4004C34.4412 22.5924 34.3743 22.8172 34.375 23.0469V26.5625H21.875V23.0469C21.8758 22.8171 21.8091 22.5922 21.6832 22.4C21.5572 22.2079 21.3775 22.057 21.1665 21.9662C20.9555 21.8753 20.7224 21.8485 20.4962 21.8891C20.2701 21.9297 20.0608 22.0358 19.8945 22.1943L12.8516 28.8418C12.6264 29.0686 12.5001 29.3752 12.5001 29.6948C12.5001 30.0144 12.6264 30.321 12.8516 30.5479L19.8945 37.1953C20.0609 37.3539 20.2702 37.4601 20.4965 37.5006C20.7227 37.5412 20.9559 37.5143 21.1669 37.4233C21.378 37.3323 21.5577 37.1813 21.6836 36.989C21.8095 36.7967 21.876 36.5716 21.875 36.3418V32.8125H34.375V36.3418C34.374 36.5716 34.4405 36.7967 34.5664 36.989C34.6923 37.1813 34.872 37.3323 35.0831 37.4233C35.2941 37.5143 35.5273 37.5412 35.7535 37.5006C35.9798 37.4601 36.1891 37.3539 36.3555 37.1953L43.3984 30.5479C43.6236 30.321 43.7499 30.0144 43.7499 29.6948C43.7499 29.3752 43.6236 29.0686 43.3984 28.8418Z" fill="#0061DF"/>
</svg>
