<svg width="51" height="50" viewBox="0 0 51 50" fill="none" xmlns="http://www.w3.org/2000/svg">
<path d="M46.5312 42.9785C48.0971 40.8795 49.1717 38.4555 49.6757 35.8857C50.1797 33.3158 50.1002 30.6655 49.4431 28.1304C48.7859 25.5954 47.5679 23.2403 45.8789 21.2388C44.1899 19.2374 42.0731 17.6408 39.6846 16.5668C39.1644 13.5736 37.9687 10.7383 36.1884 8.27642C34.4082 5.81454 32.0902 3.79082 29.4106 2.35905C26.731 0.92727 23.7604 0.125102 20.7243 0.0134944C17.6882 -0.0981136 14.6667 0.483775 11.8892 1.71495C9.11171 2.94612 6.6514 4.79418 4.6952 7.11871C2.739 9.44324 1.33838 12.1831 0.599763 15.13C-0.138857 18.077 -0.196042 21.1536 0.432554 24.1259C1.06115 27.0983 2.35899 29.8883 4.22745 32.2839L0.7542 35.7322C0.40748 36.0836 0.172608 36.5298 0.0792194 37.0145C-0.0141689 37.4992 0.0381115 38.0008 0.229464 38.4558C0.41692 38.9121 0.735254 39.3027 1.14435 39.5784C1.55344 39.8541 2.03499 40.0026 2.52831 40.005H16.7462C18.1621 42.99 20.3944 45.513 23.1848 47.2819C25.9752 49.0507 29.2094 49.9931 32.5132 50H47.5057C47.999 49.9975 48.4805 49.8491 48.8896 49.5734C49.2987 49.2977 49.6171 48.9071 49.8045 48.4508C49.9959 47.9957 50.0481 47.4942 49.9548 47.0095C49.8614 46.5247 49.6265 46.0785 49.2798 45.7272L46.5312 42.9785ZM15.022 32.5088C15.0255 33.3456 15.0923 34.1809 15.2219 35.0075H8.55028L9.42484 34.158C9.65904 33.9257 9.84493 33.6493 9.97179 33.3448C10.0986 33.0403 10.164 32.7137 10.164 32.3839C10.164 32.054 10.0986 31.7274 9.97179 31.4229C9.84493 31.1184 9.65904 30.842 9.42484 30.6098C8.02444 29.2247 6.91423 27.5744 6.15911 25.7553C5.404 23.9361 5.01915 21.9847 5.02705 20.0151C5.02705 16.0388 6.60661 12.2255 9.41824 9.41382C12.2299 6.60219 16.0433 5.02263 20.0195 5.02263C23.1222 5.00398 26.1526 5.95812 28.685 7.75092C31.2173 9.54371 33.1241 12.085 34.1374 15.0176H32.5132C27.8743 15.0176 23.4253 16.8604 20.1451 20.1407C16.8648 23.4209 15.022 27.8698 15.022 32.5088ZM41.3588 45.0025L41.4837 45.1275H32.5132C29.623 45.1223 26.824 44.1152 24.593 42.2779C22.362 40.4405 20.837 37.8865 20.2779 35.0509C19.7187 32.2153 20.16 29.2735 21.5264 26.7268C22.8929 24.18 25.1001 22.1858 27.772 21.0838C30.4439 19.9818 33.4152 19.8403 36.1797 20.6833C38.9442 21.5263 41.331 23.3017 42.9333 25.7071C44.5357 28.1125 45.2546 30.9989 44.9674 33.8749C44.6803 36.7508 43.405 39.4382 41.3588 41.4793C40.888 41.9406 40.6185 42.5693 40.6091 43.2284C40.6105 43.559 40.6775 43.8861 40.8062 44.1906C40.9348 44.4951 41.1227 44.7711 41.3588 45.0025Z" fill="#0061DF"/>
</svg>
