<svg width="958" height="218" viewBox="0 0 958 218" fill="none" xmlns="http://www.w3.org/2000/svg">
<path d="M577.98 64.72V163H554.04V104.06L532.06 163H512.74L490.62 103.92V163H466.68V64.72H494.96L522.54 132.76L549.84 64.72H577.98ZM607.236 76.76C603.036 76.76 599.582 75.5467 596.876 73.12C594.262 70.6 592.956 67.52 592.956 63.88C592.956 60.1467 594.262 57.0667 596.876 54.64C599.582 52.12 603.036 50.86 607.236 50.86C611.342 50.86 614.702 52.12 617.316 54.64C620.022 57.0667 621.376 60.1467 621.376 63.88C621.376 67.52 620.022 70.6 617.316 73.12C614.702 75.5467 611.342 76.76 607.236 76.76ZM619.136 84.88V163H595.196V84.88H619.136ZM632.425 113.72C632.425 104.013 634.525 95.38 638.725 87.82C642.925 80.1667 648.758 74.24 656.225 70.04C663.785 65.7467 672.325 63.6 681.845 63.6C693.511 63.6 703.498 66.68 711.805 72.84C720.111 79 725.665 87.4 728.465 98.04H702.145C700.185 93.9333 697.385 90.8067 693.745 88.66C690.198 86.5133 686.138 85.44 681.565 85.44C674.191 85.44 668.218 88.0067 663.645 93.14C659.071 98.2733 656.785 105.133 656.785 113.72C656.785 122.307 659.071 129.167 663.645 134.3C668.218 139.433 674.191 142 681.565 142C686.138 142 690.198 140.927 693.745 138.78C697.385 136.633 700.185 133.507 702.145 129.4H728.465C725.665 140.04 720.111 148.44 711.805 154.6C703.498 160.667 693.511 163.7 681.845 163.7C672.325 163.7 663.785 161.6 656.225 157.4C648.758 153.107 642.925 147.18 638.725 139.62C634.525 132.06 632.425 123.427 632.425 113.72ZM778.685 164.12C771.032 164.12 764.125 162.487 757.965 159.22C751.899 155.953 747.092 151.287 743.545 145.22C740.092 139.153 738.365 132.06 738.365 123.94C738.365 115.913 740.139 108.867 743.685 102.8C747.232 96.64 752.085 91.9267 758.245 88.66C764.405 85.3933 771.312 83.76 778.965 83.76C786.619 83.76 793.525 85.3933 799.685 88.66C805.845 91.9267 810.699 96.64 814.245 102.8C817.792 108.867 819.565 115.913 819.565 123.94C819.565 131.967 817.745 139.06 814.105 145.22C810.559 151.287 805.659 155.953 799.405 159.22C793.245 162.487 786.339 164.12 778.685 164.12ZM778.685 143.4C783.259 143.4 787.132 141.72 790.305 138.36C793.572 135 795.205 130.193 795.205 123.94C795.205 117.687 793.619 112.88 790.445 109.52C787.365 106.16 783.539 104.48 778.965 104.48C774.299 104.48 770.425 106.16 767.345 109.52C764.265 112.787 762.725 117.593 762.725 123.94C762.725 130.193 764.219 135 767.205 138.36C770.285 141.72 774.112 143.4 778.685 143.4ZM856.206 59.4V163H832.266V59.4H856.206ZM947.195 122.68C947.195 124.92 947.055 127.253 946.775 129.68H892.595C892.968 134.533 894.508 138.267 897.215 140.88C900.015 143.4 903.422 144.66 907.435 144.66C913.408 144.66 917.562 142.14 919.895 137.1H945.375C944.068 142.233 941.688 146.853 938.235 150.96C934.875 155.067 930.628 158.287 925.495 160.62C920.362 162.953 914.622 164.12 908.275 164.12C900.622 164.12 893.808 162.487 887.835 159.22C881.862 155.953 877.195 151.287 873.835 145.22C870.475 139.153 868.795 132.06 868.795 123.94C868.795 115.82 870.428 108.727 873.695 102.66C877.055 96.5933 881.722 91.9267 887.695 88.66C893.668 85.3933 900.528 83.76 908.275 83.76C915.835 83.76 922.555 85.3467 928.435 88.52C934.315 91.6933 938.888 96.22 942.155 102.1C945.515 107.98 947.195 114.84 947.195 122.68ZM922.695 116.38C922.695 112.273 921.295 109.007 918.495 106.58C915.695 104.153 912.195 102.94 907.995 102.94C903.982 102.94 900.575 104.107 897.775 106.44C895.068 108.773 893.388 112.087 892.735 116.38H922.695Z" fill="#0061DF"/>
<circle cx="226.647" cy="104.294" r="29.4118" fill="#0061DF"/>
<circle cx="109" cy="109" r="104.5" fill="white" stroke="#0061DF" stroke-width="9"/>
<circle cx="109" cy="109" r="76.4706" fill="#0061DF"/>
<path d="M58.1175 147.824C43.1176 124.294 43.1177 90.1765 58.1175 67.8235M58.1175 147.824C43.1176 124.294 43.1177 90.1765 58.1175 67.8235" stroke="white" stroke-width="9"/>
<circle cx="341.941" cy="109" r="104.5" fill="white" stroke="#0061DF" stroke-width="9"/>
<circle cx="344.294" cy="109" r="76.4706" fill="#0061DF"/>
<path d="M287 35.1727C236.807 8.36453 210.52 8.18713 167 35.1727L184.647 58.7021C217.283 44.6892 235.571 44.9071 268.176 58.7021L287 35.1727Z" fill="white"/>
<path d="M172 26.7395C217.203 6.57255 239.302 5.9423 280.5 26.7395" stroke="#0061DF" stroke-width="9"/>
<circle cx="225.471" cy="103.118" r="21.1765" fill="white"/>
<circle cx="225.471" cy="103.118" r="14.1176" fill="#0061DF"/>
<path d="M198 57C220.5 46.3333 232 46.3333 253 57" stroke="#0061DF" stroke-width="7.059"/>
<path d="M293.191 147.824C278.191 124.294 278.191 90.1765 293.191 67.8235" stroke="white" stroke-width="9"/>
</svg>
