<svg width="982" height="218" viewBox="0 0 982 218" fill="none" xmlns="http://www.w3.org/2000/svg">
<circle cx="226.647" cy="104.294" r="29.4118" fill="#0061DF"/>
<circle cx="109" cy="109" r="104.5" fill="white" stroke="#0061DF" stroke-width="9"/>
<circle cx="109" cy="109" r="76.4706" fill="#0061DF"/>
<path d="M58.1175 147.824C43.1177 124.294 43.1177 90.1765 58.1175 67.8235M58.1175 147.824C43.1177 124.294 43.1177 90.1765 58.1175 67.8235" stroke="white" stroke-width="9"/>
<circle cx="341.941" cy="109" r="104.5" fill="white" stroke="#0061DF" stroke-width="9"/>
<circle cx="344.294" cy="109" r="76.4706" fill="#0061DF"/>
<path d="M287 35.1727C236.807 8.36453 210.52 8.18713 167 35.1727L184.647 58.7021C217.283 44.6892 235.571 44.9071 268.176 58.7021L287 35.1727Z" fill="white"/>
<path d="M172 26.7396C217.203 6.57258 239.302 5.94233 280.5 26.7396" stroke="#0061DF" stroke-width="9"/>
<circle cx="225.471" cy="103.118" r="21.1765" fill="white"/>
<circle cx="225.471" cy="103.118" r="14.1176" fill="#0061DF"/>
<path d="M198 57C220.5 46.3333 232 46.3333 253 57" stroke="#0061DF" stroke-width="7.059"/>
<path d="M293.191 147.824C278.191 124.294 278.191 90.1765 293.191 67.8235" stroke="white" stroke-width="9"/>
<path d="M583.98 62.72V161H560.04V102.06L538.06 161H518.74L496.62 101.92V161H472.68V62.72H500.96L528.54 130.76L555.84 62.72H583.98ZM613.236 74.76C609.036 74.76 605.582 73.5467 602.876 71.12C600.262 68.6 598.956 65.52 598.956 61.88C598.956 58.1467 600.262 55.0667 602.876 52.64C605.582 50.12 609.036 48.86 613.236 48.86C617.342 48.86 620.702 50.12 623.316 52.64C626.022 55.0667 627.376 58.1467 627.376 61.88C627.376 65.52 626.022 68.6 623.316 71.12C620.702 73.5467 617.342 74.76 613.236 74.76ZM625.136 82.88V161H601.196V82.88H625.136ZM638.425 111.72C638.425 102.013 640.525 93.38 644.725 85.82C648.925 78.1667 654.758 72.24 662.225 68.04C669.785 63.7467 678.325 61.6 687.845 61.6C699.511 61.6 709.498 64.68 717.805 70.84C726.111 77 731.665 85.4 734.465 96.04H708.145C706.185 91.9333 703.385 88.8067 699.745 86.66C696.198 84.5133 692.138 83.44 687.565 83.44C680.191 83.44 674.218 86.0067 669.645 91.14C665.071 96.2733 662.785 103.133 662.785 111.72C662.785 120.307 665.071 127.167 669.645 132.3C674.218 137.433 680.191 140 687.565 140C692.138 140 696.198 138.927 699.745 136.78C703.385 134.633 706.185 131.507 708.145 127.4H734.465C731.665 138.04 726.111 146.44 717.805 152.6C709.498 158.667 699.511 161.7 687.845 161.7C678.325 161.7 669.785 159.6 662.225 155.4C654.758 151.107 648.925 145.18 644.725 137.62C640.525 130.06 638.425 121.427 638.425 111.72ZM784.685 162.12C777.032 162.12 770.125 160.487 763.965 157.22C757.899 153.953 753.092 149.287 749.545 143.22C746.092 137.153 744.365 130.06 744.365 121.94C744.365 113.913 746.139 106.867 749.685 100.8C753.232 94.64 758.085 89.9267 764.245 86.66C770.405 83.3933 777.312 81.76 784.965 81.76C792.619 81.76 799.525 83.3933 805.685 86.66C811.845 89.9267 816.699 94.64 820.245 100.8C823.792 106.867 825.565 113.913 825.565 121.94C825.565 129.967 823.745 137.06 820.105 143.22C816.559 149.287 811.659 153.953 805.405 157.22C799.245 160.487 792.339 162.12 784.685 162.12ZM784.685 141.4C789.259 141.4 793.132 139.72 796.305 136.36C799.572 133 801.205 128.193 801.205 121.94C801.205 115.687 799.619 110.88 796.445 107.52C793.365 104.16 789.539 102.48 784.965 102.48C780.299 102.48 776.425 104.16 773.345 107.52C770.265 110.787 768.725 115.593 768.725 121.94C768.725 128.193 770.219 133 773.205 136.36C776.285 139.72 780.112 141.4 784.685 141.4ZM862.206 57.4V161H838.266V57.4H862.206ZM953.195 120.68C953.195 122.92 953.055 125.253 952.775 127.68H898.595C898.968 132.533 900.508 136.267 903.215 138.88C906.015 141.4 909.422 142.66 913.435 142.66C919.408 142.66 923.562 140.14 925.895 135.1H951.375C950.068 140.233 947.688 144.853 944.235 148.96C940.875 153.067 936.628 156.287 931.495 158.62C926.362 160.953 920.622 162.12 914.275 162.12C906.622 162.12 899.808 160.487 893.835 157.22C887.862 153.953 883.195 149.287 879.835 143.22C876.475 137.153 874.795 130.06 874.795 121.94C874.795 113.82 876.428 106.727 879.695 100.66C883.055 94.5933 887.722 89.9267 893.695 86.66C899.668 83.3933 906.528 81.76 914.275 81.76C921.835 81.76 928.555 83.3467 934.435 86.52C940.315 89.6933 944.888 94.22 948.155 100.1C951.515 105.98 953.195 112.84 953.195 120.68ZM928.695 114.38C928.695 110.273 927.295 107.007 924.495 104.58C921.695 102.153 918.195 100.94 913.995 100.94C909.982 100.94 906.575 102.107 903.775 104.44C901.068 106.773 899.388 110.087 898.735 114.38H928.695Z" fill="white"/>
</svg>
